<svg version="1.1" viewBox="0.0 0.0 1322.0 166.0" fill="none" stroke="none" stroke-linecap="square" stroke-miterlimit="10" xmlns:xlink="http://www.w3.org/1999/xlink" xmlns="http://www.w3.org/2000/svg"><clipPath id="p.0"><path d="m0 0l1322.0 0l0 166.0l-1322.0 0l0 -166.0z" clip-rule="nonzero"/></clipPath><g clip-path="url(#p.0)"><path fill="#000000" fill-opacity="0.0" d="m0 0l1322.0 0l0 166.0l-1322.0 0z" fill-rule="evenodd"/><defs><radialGradient id="p.1" gradientUnits="userSpaceOnUse" gradientTransform="matrix(25.810840262680653 0.0 0.0 25.810840262680653 0.0 0.0)" spreadMethod="pad" cx="25.609699927959543" cy="3.2160082031799386" fx="25.609699927959543" fy="3.2160082031799386" r="25.810840606689453"><stop offset="0.0" stop-color="#1076d2"/><stop offset="1.0" stop-color="#093053"/></radialGradient></defs><path fill="url(#p.1)" d="m0 0l1322.0157 0l0 166.01575l-1322.0157 0z" fill-rule="evenodd"/><g filter="url(#shadowFilter-p.2)"><use xlink:href="#p.2" transform="matrix(1.0 0.0 0.0 1.0 0.0 7.0)"/></g><defs><filter id="shadowFilter-p.2" filterUnits="userSpaceOnUse"><feGaussianBlur in="SourceAlpha" stdDeviation="4.0" result="blur"/><feComponentTransfer in="blur" color-interpolation-filters="sRGB"><feFuncR type="linear" slope="0" intercept="0.0"/><feFuncG type="linear" slope="0" intercept="0.0"/><feFuncB type="linear" slope="0" intercept="0.0"/><feFuncA type="linear" slope="0.5" intercept="0"/></feComponentTransfer></filter></defs><g id="p.2"><path fill="#000000" fill-opacity="0.0" d="m370.72046 23.212599l731.21265 0l0 119.590546l-731.21265 0z" fill-rule="evenodd"/><path fill="#ffffff" d="m419.67502 112.40072q-6.03125 0 -11.078125 -2.140625q-5.046875 -2.15625 -8.765625 -6.15625q-3.71875 -4.015625 -5.75 -9.46875q-2.015625 -5.46875 -2.015625 -11.984375q0 -6.203125 2.1875 -11.53125q2.1875 -5.34375 6.078125 -9.390629q3.890625 -4.046875 9.015625 -6.28125q5.125 -2.234375 11.0625 -2.234375q4.21875 0 8.21875 1.28125q4.015625 1.28125 7.28125 3.5625q3.265625 2.265625 5.328125 5.15625l-5.9375 6.203129q-2.40625 -2.390625 -4.84375 -4.0q-2.4375 -1.6250038 -4.96875 -2.4375038q-2.515625 -0.828125 -5.078125 -0.828125q-4.046875 0 -7.5625 1.53125q-3.5 1.5156288 -6.109375 4.250004q-2.609375 2.71875 -4.09375 6.484375q-1.484375 3.765625 -1.484375 8.234375q0 4.703125 1.4375 8.546875q1.453125 3.84375 4.09375 6.578125q2.65625 2.71875 6.328125 4.171875q3.671875 1.4375 8.140625 1.4375q2.734375 0 5.375 -0.734375q2.640625 -0.75 4.953125 -2.15625q2.3125 -1.40625 4.21875 -3.296875l4.46875 7.265625q-1.90625 2.234375 -5.171875 4.0625q-3.265625 1.8125 -7.28125 2.84375q-4.0 1.03125 -8.046875 1.03125zm47.186035 0q-5.359375 0 -9.78125 -2.96875q-4.421875 -2.984375 -7.078125 -8.109375q-2.640625 -5.125 -2.640625 -11.578125q0 -6.515625 2.6875 -11.59375q2.6875 -5.09375 7.265625 -7.984375q4.59375 -2.890625 10.296875 -2.890625q3.390625 0 6.203125 1.0q2.8125 0.984375 4.90625 2.765625q2.109375 1.765625 3.46875 4.078125q1.375 2.3125 1.703125 4.96875l-1.890625 -0.671875l0 -11.234375l8.59375 0l0 43.390625l-8.59375 0l0 -10.328125l1.96875 -0.578125q-0.484375 2.234375 -2.015625 4.34375q-1.53125 2.09375 -3.890625 3.75q-2.359375 1.65625 -5.21875 2.65625q-2.84375 0.984375 -5.984375 0.984375zm2.234375 -7.859375q3.890625 0 6.859375 -1.890625q2.984375 -1.90625 4.671875 -5.25q1.703125 -3.34375 1.703125 -7.65625q0 -4.203125 -1.703125 -7.515625q-1.6875 -3.3125 -4.671875 -5.203125q-2.96875 -1.90625 -6.859375 -1.90625q-3.796875 0 -6.734375 1.90625q-2.9375 1.890625 -4.640625 5.203125q-1.6875 3.3125 -1.6875 7.515625q0 4.3125 1.6875 7.65625q1.703125 3.34375 4.640625 5.25q2.9375 1.890625 6.734375 1.890625zm33.399445 25.218742l0 -61.578117l8.59375 0l0 9.921875l-1.328125 -0.75q0.5 -2.484375 2.8125 -4.75q2.3125 -2.28125 5.65625 -3.71875q3.359375 -1.453125 6.90625 -1.453125q5.875 0 10.421875 2.890625q4.546875 2.890625 7.1875 7.9375q2.640625 5.046875 2.640625 11.578125q0 6.4375 -2.609375 11.53125q-2.59375 5.078125 -7.140625 8.015625q-4.546875 2.9375 -10.25 2.9375q-3.796875 0 -7.359375 -1.53125q-3.546875 -1.53125 -6.03125 -3.921875q-2.46875 -2.40625 -3.0625 -4.96875l2.15625 -1.15625l0 29.015617l-8.59375 0zm21.484375 -25.296867q3.8125 0 6.78125 -1.890625q2.96875 -1.90625 4.703125 -5.203125q1.75 -3.3125 1.75 -7.53125q0 -4.21875 -1.703125 -7.484375q-1.6875 -3.265625 -4.671875 -5.15625q-2.96875 -1.90625 -6.859375 -1.90625q-3.875 0 -6.859375 1.859375q-2.96875 1.859375 -4.703125 5.171875q-1.734375 3.296875 -1.734375 7.515625q0 4.21875 1.734375 7.53125q1.734375 3.296875 4.703125 5.203125q2.984375 1.890625 6.859375 1.890625zm32.07788 7.109375l0 -43.390625l8.515625 0l0 43.390625l-8.515625 0zm4.125 -52.98438q-2.71875 0 -4.21875 -1.40625q-1.484375 -1.40625 -1.484375 -3.96875q0 -2.390625 1.53125 -3.875q1.53125 -1.5 4.171875 -1.5q2.734375 0 4.21875 1.40625q1.484375 1.40625 1.484375 3.96875q0 2.40625 -1.53125 3.890625q-1.515625 1.484375 -4.171875 1.484375zm22.822205 52.98438l0 -54.468754l8.515625 0l0 54.468754l-8.515625 0zm-9.015625 -35.125l0 -8.265625l27.609375 0l0 8.265625l-27.609375 0zm51.654724 35.953125q-5.359375 0 -9.78125 -2.96875q-4.421875 -2.984375 -7.078125 -8.109375q-2.640625 -5.125 -2.640625 -11.578125q0 -6.515625 2.6875 -11.59375q2.6875 -5.09375 7.265625 -7.984375q4.59375 -2.890625 10.296875 -2.890625q3.390625 0 6.203125 1.0q2.8125 0.984375 4.90625 2.765625q2.109375 1.765625 3.46875 4.078125q1.375 2.3125 1.703125 4.96875l-1.890625 -0.671875l0 -11.234375l8.59375 0l0 43.390625l-8.59375 0l0 -10.328125l1.96875 -0.578125q-0.484375 2.234375 -2.015625 4.34375q-1.53125 2.09375 -3.890625 3.75q-2.359375 1.65625 -5.21875 2.65625q-2.84375 0.984375 -5.984375 0.984375zm2.234375 -7.859375q3.890625 0 6.859375 -1.890625q2.984375 -1.90625 4.671875 -5.25q1.703125 -3.34375 1.703125 -7.65625q0 -4.203125 -1.703125 -7.515625q-1.6875 -3.3125 -4.671875 -5.203125q-2.96875 -1.90625 -6.859375 -1.90625q-3.796875 0 -6.734375 1.90625q-2.9375 1.890625 -4.640625 5.203125q-1.6875 3.3125 -1.6875 7.515625q0 4.3125 1.6875 7.65625q1.703125 3.34375 4.640625 5.25q2.9375 1.890625 6.734375 1.890625zm33.555725 7.03125l0 -61.17188l8.515625 0l0 61.17188l-8.515625 0zm56.874817 0l0 -49.26563l-16.203125 0l0 -8.59375l41.828125 0l0 8.59375l-16.703125 0l0 49.26563l-8.921875 0zm39.338867 0l-14.796875 -43.390625l8.609375 -0.09375l10.578125 32.484375l-1.90625 -0.15625l11.484375 -25.375l5.125 0l11.578125 25.453125l-2.234375 0.171875l10.65625 -32.484375l8.609375 0l-14.640625 43.390625l-5.859375 0l-12.078125 -27.609375l1.90625 0.25l-11.234375 27.359375l-5.796875 0zm73.7287 0.828125q-6.359375 0 -11.359375 -2.9375q-5.0 -2.9375 -7.890625 -8.015625q-2.890625 -5.078125 -2.890625 -11.609375q0 -6.53125 2.890625 -11.609375q2.890625 -5.09375 7.890625 -8.015625q5.0 -2.9375 11.359375 -2.9375q6.28125 0 11.28125 2.9375q5.0 2.921875 7.890625 8.015625q2.90625 5.078125 2.90625 11.609375q0 6.53125 -2.90625 11.609375q-2.890625 5.078125 -7.890625 8.015625q-5.0 2.9375 -11.28125 2.9375zm0 -7.765625q3.890625 0 6.9375 -1.9375q3.0625 -1.953125 4.796875 -5.296875q1.75 -3.34375 1.65625 -7.5625q0.09375 -4.296875 -1.65625 -7.640625q-1.734375 -3.359375 -4.796875 -5.25q-3.046875 -1.90625 -6.9375 -1.90625q-3.875 0 -6.984375 1.9375q-3.09375 1.9375 -4.828125 5.296875q-1.734375 3.34375 -1.65625 7.5625q-0.078125 4.21875 1.65625 7.5625q1.734375 3.34375 4.828125 5.296875q3.109375 1.9375 6.984375 1.9375zm56.61786 6.9375l0 -57.85938l24.140625 0q5.546875 0 9.34375 1.65625q3.796875 1.65625 5.734375 4.921875q1.953125 3.265625 1.953125 7.968754q0 4.71875 -2.609375 8.03125q-2.59375 3.296875 -7.234375 4.53125l0 -1.65625q3.890625 0.828125 6.78125 2.9375q2.890625 2.109375 4.5 5.25q1.625 3.140625 1.625 7.1875q0 4.140625 -1.28125 7.328125q-1.28125 3.171875 -3.8125 5.328125q-2.515625 2.140625 -6.078125 3.265625q-3.546875 1.109375 -8.09375 1.109375l-24.96875 0zm8.9375 -8.59375l15.53125 0q3.390625 0 5.75 -0.984375q2.359375 -1.0 3.640625 -2.9375q1.28125 -1.953125 1.28125 -4.671875q0 -2.5625 -1.375 -4.375q-1.359375 -1.828125 -3.84375 -2.78125q-2.46875 -0.953125 -5.859375 -0.953125l-15.125 0l0 16.703125zm0 -25.296875l14.703125 0q2.484375 0 4.421875 -0.984375q1.953125 -1.0 3.0625 -2.734375q1.125 -1.734375 1.125 -3.96875q0 -3.71875 -2.484375 -5.703125q-2.484375 -1.9843788 -7.109375 -1.9843788l-13.71875 0l0 15.375004zm61.81555 34.71875q-5.359375 0 -9.78125 -2.96875q-4.421875 -2.984375 -7.078125 -8.109375q-2.640625 -5.125 -2.640625 -11.578125q0 -6.515625 2.6875 -11.59375q2.6875 -5.09375 7.265625 -7.984375q4.59375 -2.890625 10.296875 -2.890625q3.390625 0 6.203125 1.0q2.8125 0.984375 4.90625 2.765625q2.109375 1.765625 3.46875 4.078125q1.375 2.3125 1.703125 4.96875l-1.890625 -0.671875l0 -11.234375l8.59375 0l0 43.390625l-8.59375 0l0 -10.328125l1.96875 -0.578125q-0.484375 2.234375 -2.015625 4.34375q-1.53125 2.09375 -3.890625 3.75q-2.359375 1.65625 -5.21875 2.65625q-2.84375 0.984375 -5.984375 0.984375zm2.234375 -7.859375q3.890625 0 6.859375 -1.890625q2.984375 -1.90625 4.671875 -5.25q1.703125 -3.34375 1.703125 -7.65625q0 -4.203125 -1.703125 -7.515625q-1.6875 -3.3125 -4.671875 -5.203125q-2.96875 -1.90625 -6.859375 -1.90625q-3.796875 0 -6.734375 1.90625q-2.9375 1.890625 -4.640625 5.203125q-1.6875 3.3125 -1.6875 7.515625q0 4.3125 1.6875 7.65625q1.703125 3.34375 4.640625 5.25q2.9375 1.890625 6.734375 1.890625zm33.399414 7.03125l0 -43.390625l8.515625 0l0 8.921875l-1.484375 1.0q0.8125 -2.90625 3.203125 -5.34375q2.40625 -2.4375 5.703125 -3.953125q3.3125 -1.53125 6.796875 -1.53125q4.953125 0 8.25 1.9375q3.3125 1.9375 4.96875 5.90625q1.65625 3.96875 1.65625 10.0l0 26.453125l-8.515625 0l0 -25.875q0 -3.71875 -1.0 -6.15625q-0.984375 -2.4375 -3.0625 -3.546875q-2.0625 -1.125 -5.109375 -0.953125q-2.484375 0 -4.546875 0.78125q-2.0625 0.78125 -3.59375 2.1875q-1.53125 1.40625 -2.40625 3.265625q-0.859375 1.859375 -0.859375 4.015625l0 26.28125l-4.21875 0q-1.078125 0 -2.15625 0q-1.0625 0 -2.140625 0zm56.946045 -13.5625l-0.40625 -9.25l20.734375 -20.578125l11.5 0l-31.828125 29.828125zm-7.765625 13.5625l0 -61.17188l8.515625 0l0 61.17188l-8.515625 0zm29.265625 0l-16.375 -19.09375l6.03125 -5.53125l21.25 24.625l-10.90625 0z" fill-rule="nonzero"/></g><path fill="#ffffff" d="m277.85745 28.917694l-0.7694702 0.3951435l-55.819458 21.317041l-0.76950073 0.39514542l-0.3951416 1.1646385l0 3.8682632l0 0.7694931l0.3951416 0.7694931l0.76950073 0.39514542l6.592682 0l0 3.0987701l0 0.79029083l0.7694855 1.1438408l0.76950073 0.39514542l1.1646423 0.39514542l94.58525 0l1.1646423 -0.39514542l0.7902832 -0.39514542l0.76950073 -1.1438408l0.3951416 -0.79029083l0 -3.0987701l6.1975403 0l0.76950073 -0.39514542l0.3951416 -0.7694931l0.37435913 -0.7694931l0 -3.8682632l-0.37435913 -1.1646385l-1.1646423 -0.39514542l-55.819427 -21.317041l-0.7903137 -0.3951435zm-38.370667 38.765816l0 46.128l-8.921951 0l-1.1646423 0.3951416l-0.76950073 0.7694931l-0.7694855 0.7694931l0 1.1646423l0 4.658554l100.40845 0l0 -4.658554l-0.3951416 -1.1646423l-0.76950073 -0.7694931l-0.7902832 -0.7694931l-1.1646423 -0.3951416l-8.526794 0l0 -46.128l-15.493866 0l0 46.128l-15.514648 0l0 -46.128l-15.493835 0l0 46.128l-15.514648 0l0 -46.128zm-13.559708 57.753586l-1.1646423 0.3951416l-1.1646423 0l-1.9341278 1.5597839l-1.1646423 1.5389938l-0.3951416 1.1646271l0 1.1646423l0 3.8682709l0 0.7902832l0.3951416 0.76950073l0.76950073 0.3951416l113.19867 0l0.76950073 -0.3951416l0.3951416 -0.76950073l0.37435913 -0.7902832l0 -3.8682709l-0.37435913 -1.1646423l-0.3951416 -1.1646271l-1.1646423 -1.5389938l-1.9341125 -1.5597839l-0.76950073 0l-1.1646423 -0.3951416z" fill-rule="evenodd"/></g></svg>