<svg version="1.1" viewBox="0.0 0.0 1322.0 166.0" fill="none" stroke="none" stroke-linecap="square" stroke-miterlimit="10" xmlns:xlink="http://www.w3.org/1999/xlink" xmlns="http://www.w3.org/2000/svg"><clipPath id="p.0"><path d="m0 0l1322.0 0l0 166.0l-1322.0 0l0 -166.0z" clip-rule="nonzero"/></clipPath><g clip-path="url(#p.0)"><path fill="#000000" fill-opacity="0.0" d="m0 0l1322.0 0l0 166.0l-1322.0 0z" fill-rule="evenodd"/><defs><linearGradient id="p.1" gradientUnits="userSpaceOnUse" gradientTransform="matrix(28.368631093849633 0.0 0.0 28.368631093849633 0.0 0.0)" spreadMethod="pad" x1="-2.534021597252801" y1="1.4630099098307643" x2="11.650233957750435" y2="26.030999743948083"><stop offset="0.0" stop-color="#00ffff"/><stop offset="0.31" stop-color="#34a7d3"/><stop offset="1.0" stop-color="#674ea7"/></linearGradient></defs><path fill="url(#p.1)" d="m0 0l1322.0157 0l0 166.01575l-1322.0157 0z" fill-rule="evenodd"/><g filter="url(#shadowFilter-p.2)"><use xlink:href="#p.2" transform="matrix(1.0 0.0 0.0 1.0 0.0 7.0)"/></g><defs><filter id="shadowFilter-p.2" filterUnits="userSpaceOnUse"><feGaussianBlur in="SourceAlpha" stdDeviation="4.0" result="blur"/><feComponentTransfer in="blur" color-interpolation-filters="sRGB"><feFuncR type="linear" slope="0" intercept="0.0"/><feFuncG type="linear" slope="0" intercept="0.0"/><feFuncB type="linear" slope="0" intercept="0.0"/><feFuncA type="linear" slope="0.5" intercept="0"/></feComponentTransfer></filter></defs><g id="p.2"><path fill="#000000" fill-opacity="0.0" d="m477.77167 14.322835l520.8504 0l0 137.35434l-520.8504 0z" fill-rule="evenodd"/><path fill="#ffffff" d="m546.5595 117.54409q-12.953125 0 -20.734375 -4.90625q-7.78125 -4.921875 -7.78125 -15.046875q0 -5.359375 1.84375 -8.171875q1.84375 -2.828125 5.453125 -2.828125q2.625 0 4.28125 1.359375q1.65625 1.359375 1.65625 3.5q0 1.953125 -0.296875 3.40625q0 0.390625 -0.140625 1.375q-0.140625 0.96875 -0.140625 2.03125q0 4.390625 4.421875 6.53125q4.421875 2.140625 12.40625 2.140625q8.28125 0 12.953125 -2.96875q4.671875 -2.96875 4.671875 -8.328125q0 -3.296875 -2.140625 -5.6875q-2.140625 -2.390625 -5.359375 -3.984375q-3.21875 -1.609375 -9.046875 -3.953125q-7.5 -2.921875 -12.21875 -5.546875q-4.71875 -2.625 -8.078125 -7.140625q-3.359375 -4.53125 -3.359375 -11.250004q0 -7.015625 3.75 -12.453125q3.75 -5.453125 10.796875 -8.46875q7.0625 -3.015625 16.59375 -3.015625q7.109375 0 13.046875 2.09375q5.9375 2.078125 9.484375 6.375q3.5625 4.28125 3.5625 10.5q0 6.140625 -1.859375 9.25q-1.84375 3.1093788 -5.4375 3.1093788q-2.53125 0 -4.234375 -1.5468788q-1.703125 -1.5625 -1.703125 -3.703125q0 -1.84375 0.28125 -3.40625q0.296875 -2.921875 0.296875 -3.703125q0 -4.078125 -4.0 -6.21875q-3.984375 -2.140625 -9.921875 -2.140625q-8.375 0 -12.796875 3.0625q-4.421875 3.0625 -4.421875 8.609375q0 3.703125 2.28125 6.328125q2.28125 2.6250038 5.6875 4.375004q3.40625 1.75 9.546875 4.1875q7.390625 3.015625 11.859375 5.453125q4.484375 2.4375 7.640625 6.625q3.171875 4.171875 3.171875 10.3125q0 11.484375 -8.71875 17.671875q-8.703125 6.171875 -23.296875 6.171875zm46.71173 -0.296875q-3.6875 0 -5.203125 -3.890625q-1.515625 -3.890625 -1.515625 -12.453125q0 -12.65625 3.609375 -24.046875q0.875 -2.828125 2.859375 -4.140625q2.0 -1.3125 5.609375 -1.3125q1.9375 0 2.71875 0.5q0.78125 0.484375 0.78125 1.84375q0 1.546875 -1.453125 7.0q-0.984375 3.890625 -1.5625 6.8125q-0.578125 2.921875 -0.96875 7.203125q3.203125 -8.359375 7.1875 -13.609375q4.0 -5.265625 7.84375 -7.5q3.84375 -2.25 7.0625 -2.25q6.328125 0 6.328125 6.328125q0 3.796875 -2.140625 13.71875q-1.859375 8.46875 -1.859375 11.203125q0 3.890625 2.828125 3.890625q1.9375 0 4.609375 -2.375q2.6875 -2.390625 7.171875 -7.75q1.15625 -1.359375 2.625 -1.359375q1.265625 0 1.984375 1.171875q0.734375 1.15625 0.734375 3.203125q0 3.890625 -1.84375 6.03125q-4.1875 5.171875 -9.015625 8.484375q-4.8125 3.296875 -10.9375 3.296875q-4.96875 0 -7.5 -2.859375q-2.53125 -2.875 -2.53125 -8.328125q0 -2.734375 1.359375 -9.734375q1.265625 -6.140625 1.265625 -8.46875q0 -1.5625 -1.0625 -1.5625q-1.265625 0 -3.5625 3.265625q-2.28125 3.265625 -4.671875 8.625q-2.375 5.34375 -3.828125 11.28125q-1.078125 4.578125 -2.5 6.1875q-1.40625 1.59375 -4.421875 1.59375zm53.33728 0q-6.03125 0 -9.640625 -4.375q-3.59375 -4.375 -3.59375 -11.484375q0 -7.796875 3.59375 -14.75q3.609375 -6.953125 9.59375 -11.1875q5.984375 -4.234375 12.703125 -4.234375q2.140625 0 2.859375 0.828125q0.734375 0.828125 1.234375 2.96875q2.03125 -0.390625 4.28125 -0.390625q4.765625 0 4.765625 3.40625q0 2.046875 -1.46875 9.734375q-2.234375 11.1875 -2.234375 15.5625q0 1.46875 0.734375 2.34375q0.734375 0.875 1.890625 0.875q1.859375 0 4.484375 -2.375q2.625 -2.390625 7.109375 -7.75q1.15625 -1.359375 2.625 -1.359375q1.265625 0 1.984375 1.171875q0.734375 1.15625 0.734375 3.203125q0 3.890625 -1.84375 6.03125q-4.0 4.96875 -8.484375 8.375q-4.46875 3.40625 -8.640625 3.40625q-3.21875 0 -5.90625 -2.1875q-2.671875 -2.1875 -4.03125 -5.984375q-5.0625 8.171875 -12.75 8.171875zm3.5 -9.828125q2.140625 0 4.09375 -2.53125q1.953125 -2.53125 2.828125 -6.71875l3.59375 -17.90625q-4.078125 0.09375 -7.546875 3.0625q-3.453125 2.96875 -5.5 7.84375q-2.03125 4.859375 -2.03125 10.3125q0 3.015625 1.203125 4.484375q1.21875 1.453125 3.359375 1.453125zm82.24426 -12.359375q1.265625 0 2.0 1.171875q0.734375 1.15625 0.734375 3.203125q0 3.890625 -1.859375 6.03125q-4.1875 5.171875 -9.0 8.484375q-4.8125 3.296875 -10.953125 3.296875q-5.15625 0 -8.359375 -3.703125q-5.546875 3.609375 -11.59375 3.703125q-1.265625 18.781242 -5.75 31.390617q-4.46875 12.609375 -13.125 12.609375q-5.25 0 -7.78125 -3.796875q-2.53125 -3.796875 -2.53125 -10.515625q0 -9.53125 4.375 -22.234367q4.375 -12.703125 13.53125 -27.984375q0 -14.21875 -0.203125 -19.765625q-0.09375 -2.8125 2.234375 -4.46875q2.34375 -1.65625 5.84375 -1.65625q2.046875 0 2.96875 0.828125q0.9375 0.828125 1.03125 3.265625q0 2.421875 0.09375 3.59375q3.109375 -3.890625 6.125 -5.59375q3.03125 -1.703125 6.4375 -1.703125q5.4375 0 8.890625 4.375q3.46875 4.375 3.46875 11.484375q0 5.15625 -1.65625 10.03125q-1.65625 4.859375 -4.578125 8.859375q2.046875 0.578125 3.40625 0.578125q3.21875 0 6.125 -2.328125q2.921875 -2.34375 7.5 -7.796875q1.171875 -1.359375 2.625 -1.359375zm-38.53125 12.84375q3.5 -0.78125 6.46875 -3.84375q2.96875 -3.0625 4.71875 -7.578125q1.75 -4.53125 1.75 -9.5q0 -2.921875 -1.171875 -4.421875q-1.15625 -1.515625 -3.109375 -1.515625q-3.5 0 -8.46875 7.390625q-0.09375 4.28125 -0.09375 12.5625q0 4.46875 -0.09375 6.90625zm-18.59375 43.796867q2.625 0 4.375 -11.4375q1.75 -11.4375 2.234375 -28.468742q-4.171875 9.734375 -6.609375 18.593742q-2.4375 8.859375 -2.4375 14.890625q0 3.109375 0.734375 4.765625q0.734375 1.65625 1.703125 1.65625zm134.11176 -56.453117q1.265625 0 2.0 1.21875q0.734375 1.21875 0.734375 3.0625q0 2.25 -0.6875 3.515625q-0.6875 1.265625 -2.140625 2.234375q-5.734375 3.796875 -18.296875 12.453125q-3.796875 20.156242 -9.828125 31.734367q-6.03125 11.578125 -15.28125 11.578125q-4.96875 0 -8.078125 -3.0625q-3.109375 -3.0625 -3.109375 -8.03125q0 -4.578125 2.03125 -9.25q2.046875 -4.671875 7.640625 -10.8125q5.609375 -6.1249924 15.828125 -13.999992l0.28125 -1.84375q-7.6875 3.203125 -15.078125 3.203125q-10.90625 0 -19.1875 -4.234375q-8.265625 -4.234375 -12.84375 -12.015625q-4.5625 -7.78125 -4.5625 -18.109375q0 -14.40625 5.4375 -25.453129q5.453125 -11.046875 15.03125 -17.125q9.59375 -6.078125 21.46875 -6.078125q11.390625 0 17.078125 5.3125q5.703125 5.296875 5.703125 14.046875q0 5.75 -2.09375 9.203125q-2.09375 3.4531288 -5.984375 3.4531288q-2.625 0 -4.234375 -1.265625q-1.609375 -1.2656288 -1.609375 -3.5000038q0 -0.96875 0.390625 -3.3125q0.578125 -2.71875 0.578125 -4.28125q0 -4.09375 -2.484375 -6.328125q-2.46875 -2.234375 -8.3125 -2.234375q-7.109375 0 -13.1875 4.09375q-6.078125 4.078125 -9.78125 12.203125q-3.703125 8.125004 -3.703125 19.515629q0 11.6875 6.375 18.0625q6.375 6.375 18.453125 6.375q6.71875 0 14.015625 -3.015625l1.359375 -11.875l-9.921875 0q-2.734375 0 -4.203125 -1.3125q-1.453125 -1.328125 -1.453125 -4.34375q0 -2.71875 1.453125 -4.265625q1.46875 -1.5625 3.90625 -1.5625l18.203125 0q2.140625 0 3.546875 1.40625q1.40625 1.40625 1.125 4.03125q-0.296875 3.125 -1.953125 14.125l-1.0625 7.390625q7.78125 -5.84375 14.203125 -10.125q1.265625 -0.78125 2.234375 -0.78125zm-42.4375 56.359367q2.53125 0 5.546875 -5.75q3.03125 -5.734375 5.65625 -18.484367q-7.40625 6.3281174 -10.671875 11.437492q-3.25 5.109375 -3.25 9.0q0 3.796875 2.71875 3.796875zm45.065613 -34.359367q-3.6875 0 -5.203125 -3.890625q-1.515625 -3.890625 -1.515625 -12.453125q0 -12.65625 3.609375 -24.046875q0.875 -2.828125 2.859375 -4.140625q2.0 -1.3125 5.609375 -1.3125q1.9375 0 2.71875 0.5q0.78125 0.484375 0.78125 1.84375q0 1.546875 -1.453125 7.0q-0.984375 3.890625 -1.5625 6.8125q-0.578125 2.921875 -0.96875 7.203125q3.203125 -8.359375 7.1875 -13.609375q4.0 -5.265625 7.84375 -7.5q3.84375 -2.25 7.0625 -2.25q6.328125 0 6.328125 6.328125q0 1.265625 -0.875 6.140625q-0.78125 3.890625 -0.78125 4.859375q0 3.40625 2.421875 3.40625q2.734375 0 7.015625 -4.28125q1.265625 -1.265625 2.625 -1.265625q1.265625 0 1.984375 1.125q0.734375 1.109375 0.734375 2.96875q0 3.59375 -1.9375 5.640625q-2.734375 2.828125 -6.390625 4.828125q-3.640625 1.984375 -7.71875 1.984375q-5.15625 0 -7.84375 -2.625q-2.671875 -2.625 -2.671875 -7.109375q0 -1.453125 0.296875 -2.921875q0.1875 -1.9375 0.1875 -2.625q0 -1.5625 -1.0625 -1.5625q-1.46875 0 -3.859375 3.265625q-2.375 3.265625 -4.71875 8.625q-2.328125 5.34375 -3.78125 11.28125q-1.078125 4.578125 -2.5 6.1875q-1.40625 1.59375 -4.421875 1.59375zm49.346863 0q-6.03125 0 -9.640625 -4.375q-3.59375 -4.375 -3.59375 -11.484375q0 -7.796875 3.59375 -14.75q3.609375 -6.953125 9.59375 -11.1875q5.984375 -4.234375 12.703125 -4.234375q2.140625 0 2.859375 0.828125q0.734375 0.828125 1.234375 2.96875q2.03125 -0.390625 4.28125 -0.390625q4.765625 0 4.765625 3.40625q0 2.046875 -1.46875 9.734375q-2.234375 11.1875 -2.234375 15.5625q0 1.46875 0.734375 2.34375q0.734375 0.875 1.890625 0.875q1.859375 0 4.484375 -2.375q2.625 -2.390625 7.109375 -7.75q1.15625 -1.359375 2.625 -1.359375q1.265625 0 1.984375 1.171875q0.734375 1.15625 0.734375 3.203125q0 3.890625 -1.84375 6.03125q-4.0 4.96875 -8.484375 8.375q-4.46875 3.40625 -8.640625 3.40625q-3.21875 0 -5.90625 -2.1875q-2.671875 -2.1875 -4.03125 -5.984375q-5.0625 8.171875 -12.75 8.171875zm3.5 -9.828125q2.140625 0 4.09375 -2.53125q1.953125 -2.53125 2.828125 -6.71875l3.59375 -17.90625q-4.078125 0.09375 -7.546875 3.0625q-3.453125 2.96875 -5.5 7.84375q-2.03125 4.859375 -2.03125 10.3125q0 3.015625 1.203125 4.484375q1.21875 1.453125 3.359375 1.453125zm37.181763 9.828125q-3.6875 0 -5.203125 -3.890625q-1.515625 -3.890625 -1.515625 -12.453125q0 -12.65625 3.609375 -24.046875q0.875 -2.828125 2.859375 -4.140625q2.0 -1.3125 5.609375 -1.3125q1.9375 0 2.71875 0.5q0.78125 0.484375 0.78125 1.84375q0 1.546875 -1.453125 7.0q-0.984375 3.890625 -1.5625 6.765625q-0.578125 2.875 -0.96875 7.15625q2.625 -7.59375 6.265625 -12.84375q3.65625 -5.265625 7.5 -7.84375q3.84375 -2.578125 7.25 -2.578125q3.40625 0 4.8125 1.5625q1.421875 1.5625 1.421875 4.765625q0 3.109375 -1.859375 11.296875q-0.765625 3.5 -1.0625 5.25q3.21875 -8.171875 7.15625 -13.328125q3.9375 -5.15625 7.734375 -7.34375q3.796875 -2.203125 7.0 -2.203125q3.125 0 4.71875 1.609375q1.609375 1.609375 1.609375 4.71875q0 2.53125 -1.0625 9.546875q-0.96875 5.9375 -1.5625 11.25q-0.578125 5.296875 -0.578125 11.8125q0 3.703125 -1.515625 5.3125q-1.5 1.59375 -4.90625 1.59375q-3.21875 0 -4.6875 -1.65625q-1.453125 -1.65625 -1.453125 -4.953125q0 -3.90625 1.359375 -12.859375q1.171875 -7.78125 1.171875 -9.921875q0 -1.5625 -1.0625 -1.5625q-1.265625 0 -3.609375 3.265625q-2.328125 3.265625 -4.671875 8.625q-2.328125 5.34375 -3.796875 11.28125q-1.0625 4.671875 -2.484375 6.234375q-1.40625 1.546875 -4.515625 1.546875q-3.21875 0 -4.828125 -3.0625q-1.59375 -3.0625 -1.59375 -7.453125q0 -3.6875 0.96875 -10.703125q0.78125 -6.21875 0.78125 -8.171875q0 -1.5625 -1.078125 -1.5625q-1.453125 0 -3.703125 3.515625q-2.234375 3.5 -4.328125 8.953125q-2.09375 5.4375 -3.34375 10.703125q-1.078125 4.578125 -2.5 6.1875q-1.40625 1.59375 -4.421875 1.59375z" fill-rule="nonzero"/></g><g filter="url(#shadowFilter-p.3)"><use xlink:href="#p.3" transform="matrix(1.0 0.0 0.0 1.0 0.0 7.0)"/></g><defs><filter id="shadowFilter-p.3" filterUnits="userSpaceOnUse"><feGaussianBlur in="SourceAlpha" stdDeviation="4.0" result="blur"/><feComponentTransfer in="blur" color-interpolation-filters="sRGB"><feFuncR type="linear" slope="0" intercept="0.0"/><feFuncG type="linear" slope="0" intercept="0.0"/><feFuncB type="linear" slope="0" intercept="0.0"/><feFuncA type="linear" slope="0.5" intercept="0"/></feComponentTransfer></filter></defs><g id="p.3"><path fill="#000000" fill-opacity="0.0" d="m491.8279 73.05385l-19.17221 -8.708458l1.8754578 -10.910461l0 0l0.07293701 -0.9193268l-0.066986084 -0.9828949l-0.21273804 -1.0491104l-0.46725464 -0.84503937l-0.6105652 -0.9166603l-0.6778259 -0.784111l-0.7309265 -0.6516762l-0.991272 -0.45025253l-39.767212 -18.063156l0 0l-0.991272 -0.45025444l-0.9717102 -0.1217041l-1.0306702 0.008085251l-1.0920715 0.14328194l-0.9496765 0.20144081l-0.93011475 0.52999115l-0.7843323 0.59620476l-0.6385498 0.66241837l-6.9892273 8.587683l-4.8280334 -2.1930046l0 0l0 0l0.24075317 -0.5299721l0.098358154 -0.58813095l-0.10638428 -0.5245552l-0.24633789 -0.5881195l-0.10635376 -0.5245514l-0.5042114 -0.39210892l-0.4534912 -0.5191345l-0.5656128 -0.25691223l-4.1166687 -1.8698788l0 0l-0.57144165 -0.25955963l-0.6835327 0.0026683807l-0.48706055 -0.05814743l-0.605011 0.20142937l-0.60498047 0.20143127l-0.32513428 0.32855988l-0.5181885 0.39743423l-0.24075317 0.52997017l0 0l-4.5481567 -2.0658722l0 0l-0.9102783 -0.2569008l-0.9716797 -0.1217041l-0.9692688 -0.12711143l-0.9521179 0.20684814l-0.8653259 0.4028511l-0.6444092 0.65976906l-0.64437866 0.65977097l-0.4986267 0.72598267l-26.146576 57.556004l0 0l-0.28015137 0.98831177l-0.07296753 0.9193268l-0.0115356445 0.7841339l0.26589966 0.91667175l0.47061157 0.853096l0.6719971 0.7814636l0.73339844 0.64627075l0.85131836 0.38668823l94.29846 42.83246l0 0l0.85131836 0.38668823l0.9692383 0.12710571l1.0306702 -0.008087158l0.9521179 -0.20684814l0.8711548 -0.40019226l0.57714844 -0.52723694l0.6444092 -0.6597595l0.5600281 -0.8611908l26.146576 -57.556l0 0l0.21875 -0.85311127l0.07293701 -0.9193268l0.07879639 -0.9166794l-0.271698 -0.91931915l-0.4706421 -0.853096l-0.73339844 -0.64627075l-0.7309265 -0.65167236l-0.7923889 -0.5164795l0 0z" fill-rule="evenodd"/><path stroke="#ffffff" stroke-width="4.0" stroke-linejoin="round" stroke-linecap="round" d="m491.8279 73.05385l-19.17221 -8.708458l1.8754578 -10.910461l0 0l0.07293701 -0.9193268l-0.066986084 -0.9828949l-0.21273804 -1.0491104l-0.46725464 -0.84503937l-0.6105652 -0.9166603l-0.6778259 -0.784111l-0.7309265 -0.6516762l-0.991272 -0.45025253l-39.767212 -18.063156l0 0l-0.991272 -0.45025444l-0.9717102 -0.1217041l-1.0306702 0.008085251l-1.0920715 0.14328194l-0.9496765 0.20144081l-0.93011475 0.52999115l-0.7843323 0.59620476l-0.6385498 0.66241837l-6.9892273 8.587683l-4.8280334 -2.1930046l0 0l0 0l0.24075317 -0.5299721l0.098358154 -0.58813095l-0.10638428 -0.5245552l-0.24633789 -0.5881195l-0.10635376 -0.5245514l-0.5042114 -0.39210892l-0.4534912 -0.5191345l-0.5656128 -0.25691223l-4.1166687 -1.8698788l0 0l-0.57144165 -0.25955963l-0.6835327 0.0026683807l-0.48706055 -0.05814743l-0.605011 0.20142937l-0.60498047 0.20143127l-0.32513428 0.32855988l-0.5181885 0.39743423l-0.24075317 0.52997017l0 0l-4.5481567 -2.0658722l0 0l-0.9102783 -0.2569008l-0.9716797 -0.1217041l-0.9692688 -0.12711143l-0.9521179 0.20684814l-0.8653259 0.4028511l-0.6444092 0.65976906l-0.64437866 0.65977097l-0.4986267 0.72598267l-26.146576 57.556004l0 0l-0.28015137 0.98831177l-0.07296753 0.9193268l-0.0115356445 0.7841339l0.26589966 0.91667175l0.47061157 0.853096l0.6719971 0.7814636l0.73339844 0.64627075l0.85131836 0.38668823l94.29846 42.83246l0 0l0.85131836 0.38668823l0.9692383 0.12710571l1.0306702 -0.008087158l0.9521179 -0.20684814l0.8711548 -0.40019226l0.57714844 -0.52723694l0.6444092 -0.6597595l0.5600281 -0.8611908l26.146576 -57.556l0 0l0.21875 -0.85311127l0.07293701 -0.9193268l0.07879639 -0.9166794l-0.271698 -0.91931915l-0.4706421 -0.853096l-0.73339844 -0.64627075l-0.7309265 -0.65167236l-0.7923889 -0.5164795l0 0z" fill-rule="evenodd"/></g><g filter="url(#shadowFilter-p.4)"><use xlink:href="#p.4" transform="matrix(1.0 0.0 0.0 1.0 0.0 7.0)"/></g><defs><filter id="shadowFilter-p.4" filterUnits="userSpaceOnUse"><feGaussianBlur in="SourceAlpha" stdDeviation="4.0" result="blur"/><feComponentTransfer in="blur" color-interpolation-filters="sRGB"><feFuncR type="linear" slope="0" intercept="0.0"/><feFuncG type="linear" slope="0" intercept="0.0"/><feFuncB type="linear" slope="0" intercept="0.0"/><feFuncA type="linear" slope="0.5" intercept="0"/></feComponentTransfer></filter></defs><g id="p.4"><path fill="#000000" fill-opacity="0.0" d="m461.29697 59.186005l-33.230713 -15.094124" fill-rule="evenodd"/><path stroke="#ffffff" stroke-width="4.0" stroke-linejoin="round" stroke-linecap="round" d="m461.29697 59.186005l-33.230713 -15.094124" fill-rule="evenodd"/></g><g filter="url(#shadowFilter-p.5)"><use xlink:href="#p.5" transform="matrix(1.0 0.0 0.0 1.0 0.0 7.0)"/></g><defs><filter id="shadowFilter-p.5" filterUnits="userSpaceOnUse"><feGaussianBlur in="SourceAlpha" stdDeviation="4.0" result="blur"/><feComponentTransfer in="blur" color-interpolation-filters="sRGB"><feFuncR type="linear" slope="0" intercept="0.0"/><feFuncG type="linear" slope="0" intercept="0.0"/><feFuncB type="linear" slope="0" intercept="0.0"/><feFuncA type="linear" slope="0.5" intercept="0"/></feComponentTransfer></filter></defs><g id="p.5"><path fill="#000000" fill-opacity="0.0" d="m419.01117 108.139084l0 0l-2.355072 -1.2262878l-2.1536865 -1.2979202l-1.8875427 -1.4966965l-1.8310547 -1.6210785l-1.7140503 -1.8941193l-1.3635254 -1.8914795l-1.1056824 -2.0874863l-1.1090393 -2.0955505l-0.8453369 -2.28891l-0.55963135 -2.159134l-0.2993164 -2.3605576l-0.15350342 -2.2943344l0.18774414 -2.3024063l0.39007568 -2.3605728l0.5324402 -2.3024216l0.8123169 -2.1752777l0 0l1.1628723 -2.1726456l1.3812866 -1.9103241l1.5237427 -1.8521576l1.6080627 -1.6507492l1.8289795 -1.3938293l1.9158325 -1.1978302l2.0557556 -1.1342621l2.218628 -0.7340927l2.3668823 -0.6732788l2.243103 -0.41635513l2.3191833 -0.2121849l2.5542297 0.04462433l2.486969 0.17717361l2.3666077 0.44216156l2.3944702 0.76794815l2.472992 0.96671295l0 0l2.3550415 1.2262955l2.153717 1.2979202l1.8899841 1.4912872l1.7754822 1.7589188l1.7081909 1.8914719l1.3659973 1.8860703l1.1679993 1.9657593l1.0442505 2.2226944l0.9067688 2.1537094l0.49819946 2.2943344l0.35827637 2.2307663l0.15353394 2.2943344l-0.18533325 2.296997l-0.3866577 2.3686295l-0.5299988 2.2970123l-0.87713623 2.3024216l0 0l-1.098053 2.0455093l-1.3837585 1.9157257l-1.5270996 1.844101l-1.6105042 1.6561584l-1.82901 1.3938293l-1.974762 1.3276215l-1.9943542 0.9990616l-2.2800598 0.8692856l-2.302063 0.5461426l-2.3054504 0.53808594l-2.3216553 0.21759033l-2.5484009 -0.04197693l-2.4313965 -0.3150177l-2.369049 -0.43675232l-2.3944397 -0.76794434l-2.472992 -0.9667206l0 0z" fill-rule="evenodd"/><path stroke="#ffffff" stroke-width="4.0" stroke-linejoin="round" stroke-linecap="round" d="m419.01117 108.139084l0 0l-2.355072 -1.2262878l-2.1536865 -1.2979202l-1.8875427 -1.4966965l-1.8310547 -1.6210785l-1.7140503 -1.8941193l-1.3635254 -1.8914795l-1.1056824 -2.0874863l-1.1090393 -2.0955505l-0.8453369 -2.28891l-0.55963135 -2.159134l-0.2993164 -2.3605576l-0.15350342 -2.2943344l0.18774414 -2.3024063l0.39007568 -2.3605728l0.5324402 -2.3024216l0.8123169 -2.1752777l0 0l1.1628723 -2.1726456l1.3812866 -1.9103241l1.5237427 -1.8521576l1.6080627 -1.6507492l1.8289795 -1.3938293l1.9158325 -1.1978302l2.0557556 -1.1342621l2.218628 -0.7340927l2.3668823 -0.6732788l2.243103 -0.41635513l2.3191833 -0.2121849l2.5542297 0.04462433l2.486969 0.17717361l2.3666077 0.44216156l2.3944702 0.76794815l2.472992 0.96671295l0 0l2.3550415 1.2262955l2.153717 1.2979202l1.8899841 1.4912872l1.7754822 1.7589188l1.7081909 1.8914719l1.3659973 1.8860703l1.1679993 1.9657593l1.0442505 2.2226944l0.9067688 2.1537094l0.49819946 2.2943344l0.35827637 2.2307663l0.15353394 2.2943344l-0.18533325 2.296997l-0.3866577 2.3686295l-0.5299988 2.2970123l-0.87713623 2.3024216l0 0l-1.098053 2.0455093l-1.3837585 1.9157257l-1.5270996 1.844101l-1.6105042 1.6561584l-1.82901 1.3938293l-1.974762 1.3276215l-1.9943542 0.9990616l-2.2800598 0.8692856l-2.302063 0.5461426l-2.3054504 0.53808594l-2.3216553 0.21759033l-2.5484009 -0.04197693l-2.4313965 -0.3150177l-2.369049 -0.43675232l-2.3944397 -0.76794434l-2.472992 -0.9667206l0 0z" fill-rule="evenodd"/></g><g filter="url(#shadowFilter-p.6)"><use xlink:href="#p.6" transform="matrix(1.0 0.0 0.0 1.0 0.0 7.0)"/></g><defs><filter id="shadowFilter-p.6" filterUnits="userSpaceOnUse"><feGaussianBlur in="SourceAlpha" stdDeviation="4.0" result="blur"/><feComponentTransfer in="blur" color-interpolation-filters="sRGB"><feFuncR type="linear" slope="0" intercept="0.0"/><feFuncG type="linear" slope="0" intercept="0.0"/><feFuncB type="linear" slope="0" intercept="0.0"/><feFuncA type="linear" slope="0.5" intercept="0"/></feComponentTransfer></filter></defs><g id="p.6"><path fill="#000000" fill-opacity="0.0" d="m422.24173 101.02773l0 0l-1.5627136 -0.709816l-1.4423218 -0.9747925l-1.2375793 -1.0383759l-1.2434387 -1.0410233l-1.1171875 -1.30336l-0.98309326 -1.2424469l-0.7135925 -1.4331589l-0.71694946 -1.4412079l-0.57943726 -1.3722458l-0.31332397 -1.5710144l-0.31085205 -1.5764236l-0.02758789 -1.4412308l0.025543213 -1.5736694l0.31954956 -1.4466553l0.37268066 -1.5790863l0.5126343 -1.5155258l0 0l0.8041687 -1.3830948l0.9416504 -1.3141251l0.93826294 -1.3221817l1.1708679 -1.0599594l1.1036377 -0.92741394l1.3893127 -0.79763794l1.3303833 -0.6678467l1.4761658 -0.60163116l1.554657 -0.40287018l1.4923706 -0.28113556l1.6414795 -0.20687103l1.6552124 0.11903381l1.6635132 0.1162796l1.596283 0.24882507l1.6216431 0.5800247l1.6216736 0.5800247l0 0l1.5037231 0.8395996l1.5037537 0.8395996l1.2434082 1.0410233l1.176178 1.1735764l1.1844482 1.1708069l0.91830444 1.3695831l0.7759094 1.3114319l0.7135925 1.4331512l0.5180359 1.5074387l0.37225342 1.4412308l0.31332397 1.5710144l0.033416748 1.4438782l-0.033843994 1.5764313l-0.37268066 1.5790939l-0.3760376 1.5710297l-0.5126343 1.5155258l0 0l-0.8041687 1.3830948l-0.93826294 1.3221817l-0.88516235 1.189743l-1.1625671 1.0571976l-1.1094666 0.92476654l-1.3917847 0.8030472l-1.3893433 0.7976303l-1.4147339 0.4664383l-1.5513 0.41092682l-1.5546875 0.40287018l-1.5766907 0.07972717l-1.7224731 0.013511658l-1.5962524 -0.24882507l-1.6021118 -0.25147247l-1.683075 -0.44482422l-1.5626831 -0.709816l0 0z" fill-rule="evenodd"/><path stroke="#ffffff" stroke-width="4.0" stroke-linejoin="round" stroke-linecap="round" d="m422.24173 101.02773l0 0l-1.5627136 -0.709816l-1.4423218 -0.9747925l-1.2375793 -1.0383759l-1.2434387 -1.0410233l-1.1171875 -1.30336l-0.98309326 -1.2424469l-0.7135925 -1.4331589l-0.71694946 -1.4412079l-0.57943726 -1.3722458l-0.31332397 -1.5710144l-0.31085205 -1.5764236l-0.02758789 -1.4412308l0.025543213 -1.5736694l0.31954956 -1.4466553l0.37268066 -1.5790863l0.5126343 -1.5155258l0 0l0.8041687 -1.3830948l0.9416504 -1.3141251l0.93826294 -1.3221817l1.1708679 -1.0599594l1.1036377 -0.92741394l1.3893127 -0.79763794l1.3303833 -0.6678467l1.4761658 -0.60163116l1.554657 -0.40287018l1.4923706 -0.28113556l1.6414795 -0.20687103l1.6552124 0.11903381l1.6635132 0.1162796l1.596283 0.24882507l1.6216431 0.5800247l1.6216736 0.5800247l0 0l1.5037231 0.8395996l1.5037537 0.8395996l1.2434082 1.0410233l1.176178 1.1735764l1.1844482 1.1708069l0.91830444 1.3695831l0.7759094 1.3114319l0.7135925 1.4331512l0.5180359 1.5074387l0.37225342 1.4412308l0.31332397 1.5710144l0.033416748 1.4438782l-0.033843994 1.5764313l-0.37268066 1.5790939l-0.3760376 1.5710297l-0.5126343 1.5155258l0 0l-0.8041687 1.3830948l-0.93826294 1.3221817l-0.88516235 1.189743l-1.1625671 1.0571976l-1.1094666 0.92476654l-1.3917847 0.8030472l-1.3893433 0.7976303l-1.4147339 0.4664383l-1.5513 0.41092682l-1.5546875 0.40287018l-1.5766907 0.07972717l-1.7224731 0.013511658l-1.5962524 -0.24882507l-1.6021118 -0.25147247l-1.683075 -0.44482422l-1.5626831 -0.709816l0 0z" fill-rule="evenodd"/></g><g filter="url(#shadowFilter-p.7)"><use xlink:href="#p.7" transform="matrix(1.0 0.0 0.0 1.0 0.0 7.0)"/></g><defs><filter id="shadowFilter-p.7" filterUnits="userSpaceOnUse"><feGaussianBlur in="SourceAlpha" stdDeviation="4.0" result="blur"/><feComponentTransfer in="blur" color-interpolation-filters="sRGB"><feFuncR type="linear" slope="0" intercept="0.0"/><feFuncG type="linear" slope="0" intercept="0.0"/><feFuncB type="linear" slope="0" intercept="0.0"/><feFuncA type="linear" slope="0.5" intercept="0"/></feComponentTransfer></filter></defs><g id="p.7"><path fill="#000000" fill-opacity="0.0" d="m480.09534 88.692l0 0l-0.24075317 0.5299759l-0.37823486 0.46099854l-0.46505737 0.26499176l-0.605011 0.20143127l-0.45922852 0.2676468l-0.632843 -0.12436676l-0.6859741 0.008079529l-0.57144165 -0.25955963l-9.796051 -4.4495773l0 0l-0.57141113 -0.259552l-0.44525146 -0.52189636l-0.3642273 -0.32854462l-0.24633789 -0.5881195l-0.24630737 -0.5881195l0.033569336 -0.4609909l-0.04159546 -0.6516876l0.24075317 -0.5299759l1.9137573 -4.2127304l0 0l0.23831177 -0.52456665l0.5206299 -0.40283966l0.32513428 -0.32855988l0.60498047 -0.20143127l0.605011 -0.20143127l0.48461914 0.06355286l0.6859741 -0.008071899l0.57144165 0.25955963l9.7960205 4.4495697l0 0l0.57144165 0.25955963l0.44522095 0.52189636l0.5124817 0.3893509l0.10055542 0.521904l0.24630737 0.5881195l0.10638428 0.5245514l-0.10079956 0.5935364l-0.23831177 0.52456665l-1.9137573 4.2127304z" fill-rule="evenodd"/><path stroke="#ffffff" stroke-width="4.0" stroke-linejoin="round" stroke-linecap="round" d="m480.09534 88.692l0 0l-0.24075317 0.5299759l-0.37823486 0.46099854l-0.46505737 0.26499176l-0.605011 0.20143127l-0.45922852 0.2676468l-0.632843 -0.12436676l-0.6859741 0.008079529l-0.57144165 -0.25955963l-9.796051 -4.4495773l0 0l-0.57141113 -0.259552l-0.44525146 -0.52189636l-0.3642273 -0.32854462l-0.24633789 -0.5881195l-0.24630737 -0.5881195l0.033569336 -0.4609909l-0.04159546 -0.6516876l0.24075317 -0.5299759l1.9137573 -4.2127304l0 0l0.23831177 -0.52456665l0.5206299 -0.40283966l0.32513428 -0.32855988l0.60498047 -0.20143127l0.605011 -0.20143127l0.48461914 0.06355286l0.6859741 -0.008071899l0.57144165 0.25955963l9.7960205 4.4495697l0 0l0.57144165 0.25955963l0.44522095 0.52189636l0.5124817 0.3893509l0.10055542 0.521904l0.24630737 0.5881195l0.10638428 0.5245514l-0.10079956 0.5935364l-0.23831177 0.52456665l-1.9137573 4.2127304z" fill-rule="evenodd"/></g></g></svg>